<svg xmlns="http://www.w3.org/2000/svg" width="1280" height="720" viewBox="0 0 1280 720" style="font-family:system-ui;">
  <rect width="1280" height="720" fill="#f5f5f5"/>
  <!-- Header -->
  <rect x="0" y="0" width="1280" height="96" fill="#ffffff" stroke="#e0e0e0"/>
  <rect x="64" y="24" width="160" height="48" fill="#f0f0f0" stroke="#d0d0d0"/>
  <text x="72" y="54" font-size="20" fill="#222">Logo</text>
  <text x="270" y="55" font-size="18" fill="#222">Accueil</text>
  <text x="380" y="55" font-size="18" fill="#222">Le Concept</text>
  <text x="540" y="55" font-size="18" fill="#222">Nos Maisons</text>
  <rect x="690" y="40" width="230" height="36" rx="18" fill="#b42c2d"/>
  <text x="805" y="63" font-size="17" text-anchor="middle" fill="#fff">Créer ou Investir</text>
  <polygon points="905,70 915,70 910,75" fill="#fff"/>
  <rect x="690" y="96" width="260" height="96" fill="#ffffff" stroke="#d0d0d0"/>
  <text x="710" y="130" font-size="16" fill="#222">Créer votre maison partagée</text>
  <text x="710" y="160" font-size="16" fill="#222">Investissez dans la Foncière</text>
  <!-- Contenu principal -->
  <rect x="64" y="140" width="1152" height="160" rx="16" fill="#b42c2d"/>
  <text x="640" y="210" font-size="42" text-anchor="middle" fill="#fff">CONTACTEZ-NOUS</text>
  <text x="640" y="250" font-size="20" text-anchor="middle" fill="#fff" opacity="0.9">Nous sommes à votre écoute</text>
  <rect x="64" y="340" width="352" height="240" rx="12" fill="#ffffff" stroke="#e0e0e0"/>
  <text x="88" y="380" font-size="20" fill="#222">Par téléphone</text>
  <rect x="432" y="340" width="352" height="240" rx="12" fill="#ffffff" stroke="#e0e0e0"/>
  <text x="456" y="380" font-size="20" fill="#222">Par e-mail</text>
  <rect x="800" y="340" width="416" height="240" rx="12" fill="#ffffff" stroke="#e0e0e0"/>
  <text x="824" y="380" font-size="20" fill="#222">Formulaire de contact</text>
  <!-- Footer -->
  <rect x="0" y="620" width="1280" height="100" fill="#1f1f1f"/>
  <text x="640" y="675" font-size="18" text-anchor="middle" fill="#fff">Maison Mélina — Coordonnées et mentions</text>
</svg>
