<svg xmlns="http://www.w3.org/2000/svg" width="360" height="1440" viewBox="0 0 360 1440" fill="none">
  <rect width="360" height="1440" fill="#F7FAFC"/>
  <rect x="0" y="0" width="360" height="64" fill="#FFFFFF"/>
  <rect x="300" y="22" width="36" height="20" rx="3" fill="#B42C2D" opacity="0.1"/>
  <rect x="304" y="26" width="28" height="2" fill="#B42C2D"/>
  <rect x="304" y="33" width="28" height="2" fill="#B42C2D"/>
  <rect x="304" y="40" width="28" height="2" fill="#B42C2D"/>
  <text x="24" y="36" font-family="system-ui" font-size="16" fill="#222222">MAISON MÉLINA</text>

  <rect x="16" y="88" width="328" height="160" rx="12" fill="#B42C2D"/>
  <text x="32" y="132" font-family="system-ui" font-size="18" font-weight="600" fill="#FFFFFF">Créer votre maison</text>
  <text x="32" y="158" font-family="system-ui" font-size="14" fill="#FFFFFF" opacity="0.85">Accompagnement complet pour</text>
  <text x="32" y="178" font-family="system-ui" font-size="14" fill="#FFFFFF" opacity="0.85">lancer votre projet partagé.</text>

  <rect x="16" y="272" width="328" height="120" rx="12" fill="#FFFFFF" stroke="#E2E8F0"/>
  <text x="32" y="308" font-family="system-ui" font-size="15" font-weight="600" fill="#222222">Introduction</text>
  <text x="32" y="334" font-family="system-ui" font-size="13" fill="#222222" opacity="0.7">Étapes clés et méthode</text>

  <rect x="16" y="408" width="328" height="88" rx="12" fill="#FFFFFF" stroke="#E2E8F0"/>
  <rect x="16" y="408" width="8" height="88" fill="#B42C2D"/>
  <text x="32" y="440" font-family="system-ui" font-size="13" fill="#222222" opacity="0.8">Conseils pratiques adaptés</text>
  <text x="32" y="462" font-family="system-ui" font-size="13" fill="#222222" opacity="0.8">à votre territoire.</text>

  <text x="24" y="522" font-family="system-ui" font-size="16" font-weight="600" fill="#222222">Nos services</text>
  <rect x="16" y="536" width="328" height="132" rx="12" fill="#FFFFFF" stroke="#E2E8F0"/>
  <text x="32" y="568" font-family="system-ui" font-size="14" font-weight="600" fill="#222222">Étude &amp; faisabilité</text>
  <text x="32" y="594" font-family="system-ui" font-size="12" fill="#222222" opacity="0.7">Diagnostic complet et budget</text>

  <rect x="16" y="684" width="328" height="132" rx="12" fill="#FFFFFF" stroke="#E2E8F0"/>
  <text x="32" y="716" font-family="system-ui" font-size="14" font-weight="600" fill="#222222">Montage juridique</text>
  <text x="32" y="742" font-family="system-ui" font-size="12" fill="#222222" opacity="0.7">Cadre légal sécurisé</text>

  <rect x="16" y="832" width="328" height="132" rx="12" fill="#FFFFFF" stroke="#E2E8F0"/>
  <text x="32" y="864" font-family="system-ui" font-size="14" font-weight="600" fill="#222222">Accompagnement terrain</text>
  <text x="32" y="890" font-family="system-ui" font-size="12" fill="#222222" opacity="0.7">Animation et suivi quotidien</text>

  <text x="24" y="992" font-family="system-ui" font-size="16" font-weight="600" fill="#222222">Partenaires</text>
  <rect x="16" y="1006" width="328" height="124" rx="12" fill="#FFFFFF" stroke="#E2E8F0"/>
  <text x="32" y="1038" font-family="system-ui" font-size="14" font-weight="600" fill="#222222">Collectivités</text>
  <text x="32" y="1064" font-family="system-ui" font-size="12" fill="#222222" opacity="0.7">Ingénierie &amp; financement</text>

  <rect x="16" y="1146" width="328" height="124" rx="12" fill="#FFFFFF" stroke="#E2E8F0"/>
  <text x="32" y="1178" font-family="system-ui" font-size="14" font-weight="600" fill="#222222">Réseau d&apos;experts</text>
  <text x="32" y="1204" font-family="system-ui" font-size="12" fill="#222222" opacity="0.7">Architectes, notaires, etc.</text>

  <rect x="16" y="1290" width="328" height="96" rx="12" fill="#FFFFFF" stroke="#E2E8F0"/>
  <text x="32" y="1322" font-family="system-ui" font-size="14" font-weight="600" fill="#222222">Prêts à démarrer ?</text>
  <rect x="116" y="1344" width="128" height="32" rx="16" fill="#B42C2D"/>
  <text x="140" y="1365" font-family="system-ui" font-size="13" fill="#FFFFFF">Contactez-nous</text>

  <rect x="0" y="1408" width="360" height="32" fill="#2D3748"/>
  <text x="24" y="1428" font-family="system-ui" font-size="12" fill="#F7FAFC">© Maison Mélina</text>
</svg>
